<svg width="32" height="39" viewBox="0 0 32 39" fill="none" xmlns="http://www.w3.org/2000/svg">
<g clip-path="url(#clip0_56_12)">
<path d="M5.50754 0.0767975H5.47977L1.58924 9.72549C1.15732 10.8132 0.655146 11.5659 0.0974121 11.9984V12.0261H2.70471V11.9984C1.68728 11.6078 1.38009 10.8965 1.79839 9.85076L2.30057 8.59586H6.35831L6.85994 9.83715C7.27824 10.9248 6.99937 11.6356 5.99556 12.012V12.0403H11.3218V12.012C10.7221 11.6634 10.123 10.8132 9.53696 9.44662L5.50754 0.0767975ZM4.32236 3.54848L6.26027 8.35893H2.39807L4.32236 3.54848Z" fill="currentColor"/>
<path d="M19.3536 9.41884C19.6183 9.01416 19.8972 8.55446 20.218 7.99673L21.724 5.40305H18.1123V5.47276C19.1581 5.69607 19.688 6.25381 19.688 7.17374C19.688 7.78758 19.5208 8.45642 19.1722 9.18191L16.2861 5.22167C16.3416 5.20806 16.4391 5.15196 16.5508 5.11002C17.2899 4.77559 17.5829 4.63616 18.0568 4.28758C18.5448 3.89705 18.7398 3.45098 18.7398 2.83769C18.7398 2.08442 18.4331 1.47113 17.8618 0.98311C17.2899 0.495093 16.5649 0.244003 15.7283 0.244003C14.7942 0.244003 14.0274 0.508709 13.4413 1.02505C12.8558 1.54084 12.5633 2.21023 12.5633 2.99074C12.5633 3.60457 12.8422 4.28758 13.0927 4.69172C13.2044 4.87309 13.3999 5.13834 13.6227 5.47276L14.1248 6.16993C12.3819 7.11819 11.6428 7.92701 11.6428 9.07026C11.6428 10.1438 12.2147 11.0082 12.9952 11.4542C13.804 11.9009 14.5851 12.11 15.2681 12.11C16.2164 12.11 17.0666 11.8312 17.7921 11.2593L18.3215 12.012H21.6265V11.9842C21.2779 11.817 20.8454 11.3987 20.3296 10.7157L19.3536 9.41884ZM15.6308 0.411215C15.993 0.411215 16.3138 0.662304 16.5927 1.16448C16.8716 1.66612 17.0252 2.23801 17.0252 2.8513C17.0252 3.81372 16.718 4.55228 16.1466 5.0403L15.993 4.84531C15.0731 3.57625 14.6129 2.5866 14.6129 1.87527C14.6129 0.98311 14.9614 0.411215 15.6308 0.411215ZM16.1886 11.6776C15.6025 11.6776 15.0589 11.329 14.529 10.604C14.0274 9.87908 13.7763 9.09803 13.7763 8.21949C13.7763 7.35511 13.9435 6.75544 14.2643 6.42102L17.6385 11.134C17.1924 11.4962 16.7044 11.6776 16.1886 11.6776Z" fill="currentColor"/>
<path d="M31.8884 7.49456C31.5539 8.48475 31.2887 9.1122 30.8007 9.92048C30.5637 10.3252 30.3127 10.6596 30.0479 10.9107C29.518 11.4265 28.7511 11.817 27.8726 11.817H25.8927V2.37745C25.8927 1.49891 26.3807 0.717869 27.134 0.369285V0.341507H22.0305V0.369285C22.8116 0.717869 23.2854 1.48475 23.2854 2.37745V9.9902C23.2854 10.8687 22.8116 11.6498 22.0305 11.9984V12.0261H31.5817L31.9303 7.4804H31.8884V7.49456Z" fill="currentColor"/>
<path d="M5.61939 25.4673C7.3062 25.4673 9.52353 24.6171 9.52353 21.8562C9.52353 20.0016 8.33834 19.0675 5.88409 18.2168C4.61557 17.7429 3.75065 17.3666 3.26263 17.0458C2.78878 16.725 2.56546 16.293 2.56546 15.7211C2.56546 14.4385 3.52788 13.6716 4.7964 13.6716C6.34433 13.6716 7.59923 14.9265 8.95163 17.5338H8.97941L8.75664 13.5877C8.50555 13.6438 8.25446 13.6716 8.00337 13.6716C7.72451 13.6716 7.25065 13.6438 6.63736 13.5599C6.02353 13.476 5.46579 13.4205 4.96416 13.4205C3.22124 13.4346 0.97614 14.4243 0.990301 17.0038C0.990301 17.8546 1.22723 18.5518 1.70109 19.1095C2.1891 19.6672 3.06764 20.1552 4.32255 20.5735C5.32636 20.9221 5.82854 21.1035 6.49793 21.4379C6.84651 21.6051 7.09705 21.7723 7.27843 21.9259C7.66895 22.2467 7.93366 22.665 7.93366 23.1389C7.93366 24.4635 7.09705 25.1885 5.7866 25.1885C4.83834 25.1885 3.91841 24.6868 3.31873 24.1427C3.01209 23.8638 2.71906 23.5016 2.44019 23.0556C2.16132 22.6089 1.9244 22.219 1.7708 21.9259C1.61775 21.6051 1.43638 21.2429 1.25501 20.8105H1.22723V25.4118C1.61775 25.1885 2.10577 25.0774 2.69128 25.091C2.95599 25.091 3.43039 25.1471 4.07146 25.2582C4.75501 25.4118 5.2708 25.4673 5.61939 25.4673Z" fill="currentColor"/>
<path d="M17.9172 25.2865V25.2582C17.1644 24.9096 16.6764 24.1427 16.6764 23.2505V13.8388H17.6939C18.9488 13.8388 19.7854 14.7032 20.5806 16.6416H20.6083L20.3295 13.6019H10.3736L10.1089 16.6416H10.1367C10.9313 14.7032 11.7963 13.8388 13.0092 13.8388H14.0408V23.2505C14.0408 24.1291 13.5669 24.9096 12.7859 25.2582V25.2865H17.9172Z" fill="currentColor"/>
<path d="M26.6595 25.4956C29.0021 25.4956 30.5359 24.2124 30.5359 21.4657V15.6373C30.5359 14.7593 31.0097 13.9782 31.7908 13.6296V13.6019H29.0163V13.6296C29.7968 13.9782 30.2848 14.7451 30.2848 15.6373V21.4237C30.2848 23.7805 29.2668 24.9657 27.3986 24.9657C25.7113 24.9657 24.861 23.7941 24.861 21.4379V15.6236C24.861 14.7451 25.3349 13.9641 26.1159 13.6155V13.5877H21.0125V13.6155C21.7657 13.9641 22.2537 14.7309 22.2537 15.6236V21.689C22.2537 22.8878 22.6579 23.8224 23.4667 24.4913C24.2755 25.1607 25.3491 25.4956 26.6595 25.4956Z" fill="currentColor"/>
<path d="M6.77667 38.616C8.04519 38.616 9.41175 38.1144 10.5692 37.1797C11.7266 36.2456 12.5348 34.6144 12.5348 32.6901C12.5348 30.7522 11.7402 29.1209 10.5969 28.2004C9.4673 27.2663 8.12907 26.7642 6.87416 26.7642C6.5953 26.7642 5.99562 26.7783 5.03375 26.8203C4.09911 26.848 3.48582 26.8758 3.19279 26.8758H1.25488V26.9036C2.03593 27.2522 2.50978 28.0191 2.50978 28.9118V36.5245C2.50978 37.403 2.03593 38.1841 1.25488 38.5327V38.5605H3.37416C3.73691 38.5605 4.33658 38.5741 5.15902 38.5882C5.98146 38.6024 6.52558 38.616 6.77667 38.616ZM6.5392 38.3513C5.94007 38.3513 5.46567 38.3235 5.11708 38.2397V27.0991C5.36817 27.085 5.56316 27.0708 5.7587 27.0708C7.87798 27.0011 9.71839 30.2081 9.66284 33.6525C9.66284 35.2418 9.35619 36.427 8.74236 37.2081C8.14268 37.9608 7.41774 38.3513 6.5392 38.3513Z" fill="currentColor"/>
<path d="M18.4472 38.5463V38.5185C17.694 38.1699 17.206 37.4031 17.206 36.5109V28.8976C17.206 28.0191 17.694 27.2386 18.4472 26.89V26.8617H13.3438V26.89C14.1248 27.2386 14.5987 28.0055 14.5987 28.8976V36.5109C14.5987 37.3889 14.1248 38.1699 13.3438 38.5185V38.5463H18.4472Z" fill="currentColor"/>
<path d="M25.0143 38.7696C26.3672 38.7696 27.7474 38.2396 28.877 37.2495C29.9925 36.2598 30.7594 34.6144 30.7594 32.6765C30.7594 28.5212 27.3568 26.6389 24.9729 26.6389C23.6341 26.6389 22.2817 27.1688 21.1521 28.1585C20.0366 29.1487 19.2697 30.7941 19.2697 32.732C19.2419 36.8731 22.6722 38.7696 25.0143 38.7696ZM25.6139 38.5185C24.5682 38.5185 23.4249 37.2636 22.6858 35.1166C22.3372 34.0289 22.1559 32.8573 22.1559 31.6307C22.1559 30.1106 22.3933 28.9395 22.8394 28.1307C23.2855 27.3219 23.8013 26.89 24.3732 26.89C25.4467 26.89 26.59 28.1307 27.3149 30.3061C27.6635 31.3932 27.8449 32.537 27.8449 33.7778C27.8449 35.2974 27.6079 36.469 27.1477 37.2778C26.7016 38.1002 26.1717 38.5185 25.6139 38.5185Z" fill="currentColor"/>
</g>
<defs>
<clipPath id="clip0_56_12">
<rect width="32" height="38.7974" fill="currentColor"/>
</clipPath>
</defs>
</svg>
