<?xml version="1.0" encoding="UTF-8" standalone="no"?>
<!DOCTYPE svg PUBLIC "-//W3C//DTD SVG 1.1//EN" "http://www.w3.org/Graphics/SVG/1.1/DTD/svg11.dtd">
<svg width="100%" height="100%" viewBox="0 0 2090 2090" version="1.1" xmlns="http://www.w3.org/2000/svg" xmlns:xlink="http://www.w3.org/1999/xlink" xml:space="preserve" xmlns:serif="http://www.serif.com/" style="fill-rule:evenodd;clip-rule:evenodd;stroke-linejoin:round;stroke-miterlimit:2;">
    <g transform="matrix(1.02051,0,0,1.02051,-3.05176e-05,6.10352e-05)">
        <path d="M1374.41,384.089C1392,384.573 1409.74,390.839 1422,403.795C1441.21,424.102 1440.1,452.411 1439.88,478.478C1439.82,491.554 1439.58,504.627 1439.17,517.696L1428.4,509.724C1404.87,494.563 1380.04,478.354 1354.68,466.537C1365.49,440.329 1370.12,411.94 1374.41,384.089Z" style="fill:rgb(239,166,100);fill-rule:nonzero;"/>
    </g>
    <g transform="matrix(1.02051,0,0,1.02051,-3.05176e-05,6.10352e-05)">
        <path d="M729.123,384.186C731.083,384.029 732.783,384.2 734.727,384.471C736.385,385.908 736.797,387.081 737.351,389.135C739.238,396.132 739.858,403.6 741.271,410.727C743.767,423.309 747.262,435.978 750.951,448.269C755.555,463.614 761.314,477.65 769.182,491.608C745.829,506.772 721.414,520.283 697.222,534.046C688.741,538.692 680.545,543.93 672.282,548.953C671.654,530.888 672.209,512.65 672.044,494.562C671.878,476.406 670.278,456.96 673.137,439.001C674.597,429.832 677.467,421.128 682.284,413.166C693.1,395.289 709.905,388.876 729.123,384.186Z" style="fill:rgb(239,166,100);fill-rule:nonzero;"/>
    </g>
    <g transform="matrix(1.02051,0,0,1.02051,-3.05176e-05,6.10352e-05)">
        <path d="M565.508,685.722L566.442,685.633L566.436,686.155L567.743,685.762C582.836,701.09 597.889,725.544 610.642,743.43C637.533,780.635 664.002,818.138 690.047,855.939C677.154,864.136 664.309,872.409 651.514,880.76C650.298,881.146 649.305,881.05 648.042,881.031C637.371,874.339 541.288,734.127 526.744,713.514C539.315,703.813 552.936,695.495 565.508,685.722Z" style="fill:rgb(239,166,100);fill-rule:nonzero;"/>
    </g>
    <g transform="matrix(1.02051,0,0,1.02051,-3.05176e-05,6.10352e-05)">
        <path d="M1172,1600.11L1363.42,1599.96C1356.76,1616.38 1351.27,1632.65 1346.66,1649.77L1343.07,1663.5C1287.96,1664.46 1232.7,1663.81 1177.58,1663.52C1174.44,1646.59 1172.19,1617.6 1172,1600.11Z" style="fill:rgb(239,166,100);fill-rule:nonzero;"/>
    </g>
    <g transform="matrix(1.02051,0,0,1.02051,-3.05176e-05,6.10352e-05)">
        <path d="M1567.62,713.85C1568.18,713.926 1568.77,713.925 1569.32,714.079C1575.8,715.895 1609.32,759.072 1614.32,766.248C1591.19,787.831 1565.95,806.794 1541.76,827.132C1522.08,843.677 1502.48,862.963 1481.31,877.463L1478.37,876.775C1460.87,861.981 1442.96,847.486 1426.1,831.965C1442.72,816.008 1461.67,801.862 1479.38,787.099C1508.62,762.471 1538.03,738.055 1567.62,713.85Z" style="fill:rgb(239,166,100);fill-rule:nonzero;"/>
    </g>
    <g transform="matrix(1.02051,0,0,1.02051,-3.05176e-05,6.10352e-05)">
        <path d="M773.255,1600.11C846.915,1599.27 920.65,1600.16 994.319,1600.03C993.949,1621.31 995.209,1642.35 996.525,1663.58C926.636,1664.41 856.599,1663.71 786.702,1663.29C781.889,1642.56 775.812,1621.22 773.255,1600.11Z" style="fill:rgb(239,166,100);fill-rule:nonzero;"/>
    </g>
    <g transform="matrix(1.02051,0,0,1.02051,-3.05176e-05,6.10352e-05)">
        <path d="M512.398,64.018C526.9,62.681 542.427,63.824 557.025,63.867C584.645,63.868 612.265,64.011 639.884,64.298C633.031,90.479 626.82,116.851 620.311,143.12C616.306,159.28 612.624,175.742 607.129,191.471C596.482,192.487 585.168,191.78 574.457,191.763L511.724,191.529C501.848,169.892 489.773,149.176 480.389,127.377C489.741,106.067 500.453,83.966 512.398,64.018Z" style="fill:rgb(239,166,100);fill-rule:nonzero;"/>
    </g>
    <g transform="matrix(1.02051,0,0,1.02051,-3.05176e-05,6.10352e-05)">
        <path d="M1272.59,487.274C1262.48,500.964 1252.08,514.333 1240.66,526.96C1223.91,545.316 1203.5,561.183 1182.1,573.735C1180.33,574.76 1178.54,575.764 1176.75,576.745C1174.95,577.727 1173.14,578.687 1171.32,579.624C1169.5,580.561 1167.67,581.476 1165.83,582.368C1163.98,583.261 1162.13,584.131 1160.27,584.978C1158.4,585.825 1156.53,586.65 1154.64,587.451C1152.76,588.252 1150.87,589.03 1148.96,589.785C1147.06,590.54 1145.15,591.271 1143.23,591.98C1141.31,592.688 1139.38,593.372 1137.44,594.033C1135.5,594.694 1133.55,595.331 1131.6,595.944C1129.65,596.557 1127.69,597.147 1125.72,597.712C1123.75,598.277 1121.78,598.819 1119.8,599.336C1117.82,599.853 1115.83,600.345 1113.84,600.814C1111.85,601.282 1109.85,601.726 1107.84,602.146C1105.83,602.565 1103.82,602.96 1101.81,603.33C1099.8,603.701 1097.78,604.046 1095.76,604.367C1093.74,604.688 1091.71,604.984 1089.68,605.255C1087.65,605.526 1085.62,605.773 1083.59,605.995C1081.55,606.216 1079.51,606.413 1077.47,606.585C1075.43,606.756 1073.39,606.903 1071.35,607.025C1069.3,607.147 1067.26,607.244 1065.21,607.315C1063.16,607.387 1061.12,607.434 1059.07,607.455C1057.02,607.477 1054.98,607.474 1052.93,607.445C1050.88,607.416 1048.84,607.363 1046.79,607.284C1044.74,607.205 1042.7,607.102 1040.66,606.973C1038.61,606.844 1036.57,606.691 1034.53,606.513C1032.49,606.334 1030.45,606.131 1028.42,605.902C1026.39,605.673 1024.36,605.42 1022.33,605.142C1020.3,604.864 1018.27,604.561 1016.25,604.233C1014.23,603.906 1012.21,603.553 1010.2,603.176C1008.19,602.799 1006.18,602.397 1004.18,601.971C1002.18,601.545 1000.18,601.094 998.188,600.619C996.197,600.144 994.211,599.644 992.232,599.121C932.504,583.526 873.238,543.551 841.752,489.613C850.599,490.717 871.321,502.963 881.354,507.257C897.241,514.055 913.596,520.503 930.18,525.379C933.719,526.397 937.269,527.371 940.831,528.302C944.394,529.233 947.967,530.121 951.551,530.965C955.135,531.808 958.729,532.608 962.333,533.364C965.936,534.12 969.548,534.832 973.169,535.5C976.79,536.167 980.419,536.791 984.055,537.37C987.691,537.949 991.334,538.483 994.983,538.974C998.634,539.464 1002.29,539.909 1005.95,540.31C1009.61,540.711 1013.27,541.067 1016.94,541.378C1020.61,541.689 1024.28,541.955 1027.96,542.177C1031.63,542.398 1035.31,542.575 1038.99,542.706C1042.67,542.838 1046.35,542.925 1050.03,542.966C1053.71,543.008 1057.39,543.005 1061.08,542.957C1064.76,542.908 1068.44,542.815 1072.12,542.677C1075.8,542.539 1079.48,542.356 1083.15,542.128C1086.82,541.9 1090.5,541.627 1094.17,541.309C1097.84,540.992 1101.5,540.629 1105.16,540.222C1108.82,539.815 1112.47,539.363 1116.12,538.866C1119.77,538.369 1123.41,537.828 1127.04,537.243C1130.68,536.658 1134.31,536.028 1137.93,535.354C1141.55,534.68 1145.16,533.962 1148.76,533.199C1152.36,532.437 1155.95,531.631 1159.54,530.78C1163.12,529.93 1166.69,529.036 1170.25,528.099C1173.81,527.162 1177.36,526.181 1180.9,525.157C1184.43,524.133 1187.96,523.066 1191.47,521.955C1194.98,520.845 1198.47,519.692 1201.96,518.497C1205.44,517.301 1208.91,516.063 1212.36,514.783C1215.81,513.502 1219.25,512.18 1222.67,510.816C1226.09,509.451 1229.49,508.045 1232.88,506.598C1236.27,505.151 1239.63,503.662 1242.98,502.133C1246.33,500.603 1249.66,499.032 1252.97,497.421C1256.28,495.81 1259.57,494.159 1262.84,492.467C1266.11,490.776 1269.36,489.045 1272.59,487.274Z" style="fill:rgb(239,166,100);fill-rule:nonzero;"/>
    </g>
    <g transform="matrix(1.02051,0,0,1.02051,-3.05176e-05,6.10352e-05)">
        <path d="M1039.74,96.503C1045.4,96.177 1051.07,96.034 1056.74,96.074C1062.41,96.114 1068.08,96.336 1073.74,96.741C1079.39,97.147 1085.03,97.734 1090.65,98.503C1096.27,99.272 1101.86,100.222 1107.42,101.352C1175.58,115.826 1232.48,155.77 1270.48,213.958C1254.92,207.983 1240.07,199.949 1224.51,193.802C1173.55,173.679 1122.83,163.896 1068.28,160.755C1064.21,160.665 1060.14,160.629 1056.07,160.648C1052,160.667 1047.93,160.74 1043.86,160.867C1039.79,160.994 1035.72,161.176 1031.66,161.412C1027.59,161.648 1023.53,161.938 1019.47,162.282C1015.42,162.627 1011.37,163.025 1007.32,163.477C1003.27,163.93 999.234,164.436 995.201,164.996C991.168,165.557 987.144,166.171 983.128,166.838C979.111,167.505 975.105,168.226 971.108,169.001C967.111,169.776 963.125,170.604 959.15,171.485C955.175,172.366 951.213,173.299 947.263,174.286C943.313,175.273 939.377,176.313 935.454,177.404C931.532,178.496 927.625,179.64 923.733,180.836C919.842,182.032 915.967,183.28 912.108,184.58C908.25,185.879 904.41,187.23 900.587,188.632C896.765,190.034 892.962,191.487 889.178,192.991C885.395,194.494 881.632,196.048 877.89,197.652C864.683,203.24 851.987,209.901 839.067,216.106C844.561,207.379 851.032,199.004 857.608,191.06C905.748,132.9 965.159,103.627 1039.74,96.503Z" style="fill:rgb(239,166,100);fill-rule:nonzero;"/>
    </g>
    <g transform="matrix(1.02051,0,0,1.02051,-3.05176e-05,6.10352e-05)">
        <path d="M1662.71,1377.53C1676.77,1381.12 1773.86,1458.25 1791.79,1471.92C1781.43,1487.97 1773.67,1506.12 1765.35,1523.28L1728.6,1598.79C1714.18,1598.77 1687.08,1589.1 1671.78,1585.22C1647.95,1579.2 1623.74,1574.07 1600.08,1567.51C1599.26,1535.47 1599.93,1503.27 1599.84,1471.21C1621.27,1440.31 1641.7,1408.72 1662.71,1377.53Z" style="fill:rgb(239,166,100);fill-rule:nonzero;"/>
    </g>
    <g transform="matrix(1.02051,0,0,1.02051,-3.05176e-05,6.10352e-05)">
        <path d="M1758.17,257.614C1760.69,258.413 1761.94,259.559 1763.61,261.51C1775.86,275.841 1786.73,291.963 1797.95,307.128C1816.74,332.926 1836.01,358.364 1855.75,383.441C1818.64,419.256 1782.78,456.502 1746.26,492.93C1740.45,498.859 1734.5,504.649 1728.41,510.3C1705.84,491.158 1683.2,469.338 1663.77,447.002L1664.32,350.968C1679.5,337.069 1693.86,322.281 1708.47,307.789C1725.18,291.218 1742.12,274.823 1758.17,257.614Z" style="fill:rgb(239,166,100);fill-rule:nonzero;"/>
    </g>
    <g transform="matrix(1.02051,0,0,1.02051,-3.05176e-05,6.10352e-05)">
        <path d="M511.698,1695.84C527.704,1697.74 544.172,1702.41 560.011,1705.65C597.232,1713.45 634.521,1720.91 671.878,1728.03C671.43,1770.5 671.296,1812.96 671.476,1855.43C654.281,1858.01 637.161,1861.94 620.177,1865.64L512.347,1887.31C507.224,1875.38 481.446,1800.98 481.863,1791.42C482.483,1777.23 505.944,1714.17 511.698,1695.84Z" style="fill:rgb(239,166,100);fill-rule:nonzero;"/>
    </g>
    <g transform="matrix(1.02051,0,0,1.02051,-3.05176e-05,6.10352e-05)">
        <path d="M318.373,320.78C325.972,320.724 435.714,376.548 447.383,384.857C438.626,403.498 431.529,423.116 424.03,442.298C410.869,475.965 397.853,509.911 383.38,543.038C375.278,541.65 367.207,539.139 359.247,537.069C349.466,533.131 337.152,531.415 326.849,528.957C303.378,523.355 279.754,517.917 256.482,511.548C249.603,490.677 245.501,467.974 240.254,446.576C235.157,425.787 228.602,404.82 224.932,383.75C255.506,361.952 287.982,342.842 318.373,320.78Z" style="fill:rgb(239,166,100);fill-rule:nonzero;"/>
    </g>
    <g transform="matrix(1.02051,0,0,1.02051,-3.05176e-05,6.10352e-05)">
        <path d="M1181.54,1728.21C1233.63,1726.98 1285.85,1727.71 1337.96,1727.99C1338.04,1731.9 1338.2,1735.8 1338.45,1739.7C1338.7,1743.6 1339.04,1747.49 1339.47,1751.38C1339.89,1755.27 1340.4,1759.14 1340.99,1763.01C1341.58,1766.87 1342.26,1770.72 1343.03,1774.55C1343.8,1778.38 1344.65,1782.2 1345.58,1786C1346.51,1789.79 1347.53,1793.57 1348.63,1797.32C1349.73,1801.07 1350.91,1804.79 1352.17,1808.49C1353.44,1812.19 1354.78,1815.86 1356.21,1819.5C1363.34,1837.87 1374.15,1856.88 1375.53,1876.79C1376.99,1897.77 1368.13,1915.14 1354.71,1930.57C1340.5,1943.11 1324.39,1950.57 1305.23,1951.16C1274.83,1952.1 1242.1,1938.45 1220.32,1917.46C1185.5,1883.89 1184.45,1841.23 1183.26,1796.06L1181.54,1728.21Z" style="fill:rgb(239,166,100);fill-rule:nonzero;"/>
    </g>
    <g transform="matrix(1.02051,0,0,1.02051,-3.05176e-05,6.10352e-05)">
        <path d="M810.782,1728.32C835.607,1727.61 860.651,1728.31 885.499,1728.27C925.112,1728.04 964.726,1728.01 1004.34,1728.19C1015.72,1785.88 1023.19,1818.33 1000.83,1875.53C995.361,1889.51 989.48,1903.55 981.389,1916.23C979.147,1919.48 976.676,1922.77 974.055,1925.73C960.602,1940.91 938.183,1950.26 918.117,1951.23C917.436,1951.26 916.754,1951.29 916.072,1951.3C915.39,1951.31 914.708,1951.32 914.025,1951.31C913.343,1951.31 912.661,1951.3 911.979,1951.28C911.298,1951.26 910.616,1951.23 909.935,1951.2C909.254,1951.16 908.573,1951.11 907.893,1951.06C907.213,1951.01 906.534,1950.95 905.855,1950.88C905.176,1950.81 904.499,1950.73 903.822,1950.65C903.145,1950.56 902.47,1950.47 901.795,1950.36C901.12,1950.26 900.447,1950.15 899.776,1950.03C899.105,1949.91 898.435,1949.78 897.766,1949.65C897.097,1949.51 896.431,1949.36 895.766,1949.21C895.101,1949.06 894.437,1948.9 893.776,1948.73C893.115,1948.56 892.457,1948.39 891.8,1948.2C891.143,1948.02 890.489,1947.83 889.837,1947.62C889.185,1947.42 888.536,1947.21 887.889,1947C887.242,1946.78 886.597,1946.55 885.956,1946.32C885.315,1946.09 884.676,1945.85 884.041,1945.6C883.406,1945.35 882.773,1945.1 882.144,1944.84C881.515,1944.57 880.89,1944.3 880.267,1944.02C879.644,1943.74 879.025,1943.45 878.41,1943.16C877.795,1942.87 877.183,1942.57 876.575,1942.26C875.967,1941.95 875.363,1941.63 874.762,1941.31C874.162,1940.98 873.566,1940.65 872.974,1940.31C872.382,1939.97 871.794,1939.62 871.21,1939.27C870.627,1938.92 870.048,1938.56 869.473,1938.19C868.898,1937.82 868.328,1937.45 867.762,1937.07C867.197,1936.69 866.636,1936.3 866.08,1935.9C865.524,1935.51 864.973,1935.11 864.426,1934.7C863.88,1934.29 863.339,1933.88 862.803,1933.45C862.267,1933.03 861.736,1932.6 861.211,1932.17C860.686,1931.73 860.166,1931.29 859.651,1930.84C859.136,1930.39 858.627,1929.94 858.124,1929.48C847.329,1919.51 840.527,1906.94 836.492,1892.9C828.017,1863.41 831.507,1830.47 826.742,1800.13C824.381,1785.09 820.683,1770.25 816.955,1755.5C814.79,1746.95 811.081,1737.12 810.782,1728.32Z" style="fill:rgb(239,166,100);fill-rule:nonzero;"/>
    </g>
    <g transform="matrix(1.02051,0,0,1.02051,-3.05176e-05,6.10352e-05)">
        <path d="M1653.89,817.704C1655.79,817.95 1656.21,818.203 1657.65,819.538C1665.68,827.006 1672.52,837.421 1679.25,846.129C1694.74,866.157 1710.51,887.107 1729.31,904.188C1740.83,914.65 1754.58,923.013 1768.62,929.626C1782.65,936.237 1799.57,941.087 1810.95,951.933C1818.3,958.943 1823.24,969.883 1823.35,980.076C1823.44,987.473 1820.93,996.358 1817.57,1002.85C1802.38,1032.2 1769.79,1015.82 1745.97,1027.79C1725.97,1037.84 1706.58,1062.24 1690.71,1078.26C1686.09,1082.39 1681.27,1085.84 1675.02,1086.89C1666.69,1088.3 1659.65,1084.67 1654.47,1078.28C1643.69,1064.97 1638.94,1044.57 1631,1029.25C1610.7,990.078 1565.07,947.336 1529.26,921.678C1539.22,911.344 1552.1,902.319 1563.23,893.113C1593.42,868.142 1624.93,844.077 1653.89,817.704Z" style="fill:rgb(239,166,100);fill-rule:nonzero;"/>
    </g>
    <g transform="matrix(1.02051,0,0,1.02051,-3.05176e-05,6.10352e-05)">
        <path d="M477.602,758.515C485.476,763.208 577.14,896.583 593.776,918.721C573.191,935.855 539.8,950.722 521.803,968.678C497.405,993.02 530.298,1032.78 529.426,1061.06C529.117,1071.09 524.63,1079.89 517.386,1086.71C509.163,1094.45 499.674,1098.6 488.217,1098.11C469.116,1097.28 457.836,1084.63 445.791,1071.72C440.089,1065.56 434.723,1060.84 426.665,1057.87C395.565,1046.43 326.832,1067.71 300.883,1046.49C292.789,1039.87 289.009,1030.65 288.44,1020.39C287.235,998.655 318.862,973.903 333.192,959.778C347.698,945.48 364.822,931.257 376.686,914.733C388.339,898.503 394.827,877.443 404.522,859.762C425.099,822.234 449.896,790.918 477.602,758.515Z" style="fill:rgb(239,166,100);fill-rule:nonzero;"/>
    </g>
    <g transform="matrix(1.02051,0,0,1.02051,-3.05176e-05,6.10352e-05)">
        <path d="M1052.82,224.448C1151.73,223.477 1222.2,262.814 1307.8,305.642C1311.66,336.931 1310.79,365.918 1307.31,397.19C1293.55,405.369 1279.01,412.543 1264.8,419.942C1197.76,454.873 1134.83,476.565 1058.81,478.275C979.774,477.573 925.456,458.71 855.285,423.656C838.254,415.148 820.013,407.201 803.867,397.147C800.63,365.723 800.65,336.568 803.748,305.13C864.386,277.159 921.74,242.185 988.479,230.52C1009.8,226.793 1031.24,225.592 1052.82,224.448Z" style="fill:rgb(239,166,100);fill-rule:nonzero;"/>
    </g>
    <g transform="matrix(1.02051,0,0,1.02051,-3.05176e-05,6.10352e-05)">
        <path d="M795.491,1151.77C853.332,1150.42 911.519,1151.78 969.396,1151.81L1359.53,1151.68C1368.04,1193.19 1381.62,1232.9 1391.86,1273.9C1392.55,1276.57 1393.23,1279.25 1393.88,1281.94C1394.53,1284.63 1395.15,1287.32 1395.76,1290.02C1396.37,1292.71 1396.95,1295.41 1397.51,1298.12C1398.06,1300.83 1398.6,1303.54 1399.11,1306.26C1399.62,1308.97 1400.11,1311.69 1400.58,1314.42C1401.05,1317.14 1401.49,1319.87 1401.91,1322.6C1402.32,1325.33 1402.72,1328.07 1403.09,1330.81C1403.46,1333.55 1403.81,1336.29 1404.14,1339.03C1404.47,1341.78 1404.77,1344.52 1405.05,1347.27C1405.33,1350.02 1405.59,1352.78 1405.82,1355.53C1406.05,1358.28 1406.25,1361.04 1406.44,1363.8C1406.63,1366.55 1406.79,1369.31 1406.93,1372.08C1407.06,1374.84 1407.18,1377.6 1407.27,1380.36C1407.36,1383.12 1407.43,1385.88 1407.47,1388.65C1407.52,1391.41 1407.54,1394.17 1407.54,1396.94C1407.53,1399.71 1407.51,1402.47 1407.46,1405.23C1407.41,1408 1407.33,1410.76 1407.24,1413.52C1407.14,1416.28 1407.02,1419.04 1406.87,1421.8C1406.73,1424.56 1406.56,1427.32 1406.37,1430.08C1406.18,1432.83 1405.96,1435.59 1405.73,1438.35C1405.49,1441.1 1405.23,1443.85 1404.94,1446.6C1404.65,1449.35 1404.35,1452.09 1404.02,1454.84C1403.69,1457.58 1403.33,1460.32 1402.95,1463.06C1402.57,1465.8 1402.17,1468.53 1401.74,1471.26C1401.32,1473.99 1400.87,1476.72 1400.4,1479.45C1399.93,1482.17 1399.43,1484.89 1398.91,1487.6C1398.4,1490.32 1397.86,1493.03 1397.29,1495.73C1396.72,1498.44 1396.14,1501.14 1395.53,1503.84C1394.92,1506.53 1394.28,1509.22 1393.63,1511.91C1392.98,1514.6 1392.3,1517.28 1391.59,1519.95C1390.89,1522.62 1390.17,1525.29 1389.42,1527.95C1388.67,1530.61 1387.9,1533.26 1387.11,1535.91C1312.49,1536.7 1237.6,1536.22 1162.96,1535.55C1160.89,1521.66 1158.72,1507.78 1156.44,1493.93C1152.97,1461.61 1127.32,1311.14 1112.85,1291.79C1108.05,1285.38 1100.23,1281.26 1092.38,1280.16C1083.9,1278.96 1074.8,1280.74 1068.02,1286.15C1055.69,1295.98 1050.02,1317.5 1044.87,1331.86C1020.63,1399.5 1006.57,1464.2 997.636,1535.3C919.074,1536.67 840.336,1535.47 761.749,1535.61C750.408,1441.75 763.138,1358.29 777.647,1266.19C783.282,1228 789.23,1189.86 795.491,1151.77Z" style="fill:rgb(239,166,100);fill-rule:nonzero;"/>
    </g>
    <g transform="matrix(1.02051,0,0,1.02051,-3.05176e-05,6.10352e-05)">
        <path d="M1325.04,524.364C1334.69,525.532 1347.94,536.247 1356.38,541.444C1389.29,561.72 1421.54,582.256 1452.09,606.054C1476.62,625.157 1499.38,646.09 1523.12,666.098C1487.13,697.261 1450.69,727.896 1413.81,758.003C1394.91,773.448 1366.07,793.694 1350.67,812.011C1346.19,817.342 1345.02,824.062 1344.24,830.809C1341.55,854.092 1343.93,879.02 1343.99,902.503C1344.07,934.195 1343.57,965.967 1344.33,997.648C1345.25,1027.64 1346.77,1057.61 1348.88,1087.54C1326.97,1088.32 1304.84,1087.79 1282.9,1087.79L1161.75,1087.69L796.534,1087.96C792.531,1062.39 789.828,1036.51 786.403,1010.85C783.262,982.403 778.903,954.065 775.67,925.619C773.313,904.874 772.893,877.031 766.803,857.666C759.903,835.73 736.467,808.172 722.692,789.111L661.716,704.665C649.231,687.265 635.946,669.924 624.968,651.534C637.575,642.058 653.016,634.451 666.626,626.397C691.203,611.745 715.93,597.35 740.805,583.211C761.494,571.422 782.578,560.138 802.194,546.599C810.374,554.941 817.715,564.175 825.807,572.638C832.806,579.838 840.081,586.748 847.63,593.369C855.18,599.99 862.981,606.301 871.033,612.3C936.47,660.857 1024.33,679.755 1104.45,667.88C1201.45,653.503 1268.22,600.969 1325.04,524.364ZM1101.38,734.53C1069.45,735.619 1037.39,735.063 1005.44,735.139C984.723,735.188 961.512,733.285 941.391,738.595C940.04,738.944 938.703,739.341 937.38,739.785C936.057,740.228 934.751,740.718 933.463,741.255C932.175,741.791 930.907,742.372 929.66,742.998C928.413,743.624 927.189,744.293 925.989,745.006C924.79,745.719 923.617,746.473 922.47,747.268C921.323,748.063 920.206,748.898 919.119,749.773C918.032,750.648 916.977,751.56 915.954,752.509C914.931,753.458 913.943,754.443 912.99,755.462C906.76,762.083 901.373,770.811 898.955,779.61C891.635,806.246 895.345,834.846 895.5,862.092C895.617,882.696 894.882,903.388 895.713,923.975C896.539,944.44 901.792,961.317 917.366,975.336C942.054,997.559 979.1,992.57 1009.68,991.92L1099.21,991.92C1121.66,991.957 1146.98,994.5 1168.88,989.16C1170.22,988.829 1171.55,988.452 1172.86,988.029C1174.17,987.606 1175.47,987.139 1176.76,986.628C1178.04,986.117 1179.3,985.562 1180.55,984.965C1181.79,984.367 1183.01,983.727 1184.21,983.046C1185.41,982.364 1186.59,981.642 1187.74,980.88C1188.89,980.118 1190.02,979.318 1191.11,978.479C1192.2,977.64 1193.27,976.764 1194.31,975.852C1195.34,974.94 1196.35,973.994 1197.32,973.013C1217.57,952.861 1217.08,923.695 1216.92,897.04C1216.83,882.138 1216.36,867.241 1216.4,852.339C1216.47,829.105 1219.34,802.479 1212.83,779.993C1210.05,770.391 1204.34,761.398 1197.3,754.356C1176.39,733.458 1147.81,733.917 1120.15,734.17C1113.89,734.243 1107.63,734.363 1101.38,734.53Z" style="fill:rgb(239,166,100);fill-rule:nonzero;"/>
    </g>
    <g transform="matrix(1.02051,0,0,1.02051,-3.05176e-05,6.10352e-05)">
        <path d="M961.187,800.369C992.046,799.783 1023,800.168 1053.87,800.134C1086.38,800.099 1119.01,799.674 1151.52,800.512C1151.23,819.532 1153.56,919.012 1150.58,927.107C1126.13,928.572 1101.53,927.854 1077.05,927.792L960.204,927.518C959.775,904.169 956.406,816.085 961.187,800.369Z" style="fill:rgb(239,166,100);fill-rule:nonzero;"/>
    </g>
</svg>
