<svg width="466" height="568" viewBox="0 0 466 568" fill="none" xmlns="http://www.w3.org/2000/svg">
<path d="M80.2103 1.12134H79.8025L23.1544 141.636C16.8488 157.482 9.53844 168.434 1.41257 174.74V175.148H39.3916V174.74C24.5669 169.06 20.0963 158.705 26.1834 143.471L33.5083 125.193H92.5884L99.8988 143.267C105.986 159.113 101.937 169.468 87.3167 174.944V175.352H164.877V174.944C156.139 169.861 147.416 157.482 138.883 137.587L80.2103 1.12134ZM62.9391 51.6733L91.1613 121.727H34.9209L62.9391 51.6733ZM281.843 137.179C285.687 131.281 289.75 124.581 294.425 116.469L316.356 78.6897H263.756V79.7092C278.988 82.957 286.707 91.0692 286.707 104.468C286.707 113.425 284.275 123.154 279.192 133.727L237.165 76.0536C237.98 75.8497 239.393 75.0342 241.024 74.4225C251.786 69.5581 256.052 67.5191 262.955 62.4508C270.062 56.7562 272.901 50.2606 272.901 41.3328C272.901 30.3515 268.431 21.4237 260.115 14.3164C251.786 7.20913 241.228 3.55354 229.039 3.55354C215.438 3.55354 204.283 7.41303 195.735 14.9281C187.215 22.4432 182.949 32.1866 182.949 43.5611C182.949 52.5035 187.026 62.4508 190.667 68.3201C192.283 70.9708 195.138 74.8303 198.385 79.7092L205.695 89.8604C180.313 103.667 169.551 115.45 169.551 132.096C169.551 147.738 177.881 160.322 189.24 166.817C201.021 173.327 212.394 176.371 222.34 176.371C236.145 176.371 248.538 172.308 259.096 163.992L266.814 174.944H314.943V174.536C309.846 172.104 303.555 166.016 296.056 156.069L281.843 137.179ZM227.612 5.97118C232.884 5.97118 237.553 9.62677 241.621 16.938C245.784 24.4551 247.95 32.9144 247.912 41.5076C247.912 55.5328 243.441 66.2811 235.126 73.403L232.883 70.5484C219.486 52.0714 212.787 37.653 212.787 27.293C212.787 14.3018 217.855 5.97118 227.612 5.97118ZM235.738 170.065C227.19 170.065 219.282 164.982 211.564 154.423C204.354 144.283 200.518 132.13 200.598 119.688C200.598 107.104 203.045 98.3658 207.705 93.5014L256.853 162.142C250.344 167.414 243.237 170.065 235.738 170.065ZM464.369 109.158C459.505 123.576 455.632 132.708 448.54 144.476C445.088 150.374 441.433 155.253 437.574 158.894C429.856 166.424 418.686 172.104 405.901 172.104H377.067V34.6188C377.067 21.8315 384.173 10.4424 395.139 5.37406V4.98083H320.826V5.37406C332.185 10.4569 339.088 21.6276 339.088 34.6188V145.495C339.088 158.297 332.2 169.672 320.812 174.74V175.148H459.913L464.981 108.939H464.369V109.158ZM81.8412 370.904C106.394 370.904 138.693 358.524 138.693 318.327C138.693 291.311 121.422 277.694 85.6858 265.314C67.2205 258.411 54.6239 252.935 47.5174 248.26C40.6148 243.585 37.3528 237.293 37.3528 228.962C37.3528 210.276 51.3765 199.106 69.8418 199.106C92.3845 199.106 110.66 217.398 130.363 255.367H130.757L127.524 197.897C123.919 198.701 120.237 199.112 116.544 199.12C112.495 199.12 105.593 198.713 96.6513 197.489C88.5827 196.285 80.4447 195.604 72.2883 195.45C46.9058 195.683 14.213 210.087 14.4169 247.662C14.4169 260.042 17.8682 270.208 24.7708 278.32C31.8773 286.447 44.6778 293.554 62.9537 299.642C77.5599 304.739 84.8848 307.361 94.6271 312.24C99.7094 314.672 103.365 317.104 105.986 319.347C111.68 324.007 115.539 330.11 115.539 337.013C115.539 356.311 103.35 366.87 84.2732 366.87C70.4534 366.87 57.0559 359.558 48.3329 351.636C43.3731 346.959 39.0674 341.634 35.5325 335.804C32.0915 330.433 28.8373 324.944 25.7756 319.347C23.5621 314.686 20.9118 309.4 18.2759 303.108H17.8682V370.103C23.5476 366.855 30.6686 365.238 39.1877 365.442C43.0468 365.442 49.9639 366.258 59.2839 367.875C69.2447 370.117 76.7589 370.933 81.8267 370.933M260.916 368.282V367.86C249.951 362.792 242.859 351.621 242.859 338.615V201.567H257.669C275.945 201.567 288.119 214.15 299.711 242.39H300.104L296.041 198.115H151.071L147.212 242.39H147.62C159.183 214.15 171.794 201.567 189.444 201.567H204.472V338.63C204.472 351.446 197.569 362.806 186.196 367.875V368.297L260.916 368.282ZM388.236 371.326C422.342 371.326 444.68 352.626 444.68 312.633V227.739C444.68 214.951 451.583 203.577 462.956 198.509V198.101H422.546V198.509C433.904 203.577 441.025 214.748 441.025 227.739V312.021C441.025 346.349 426.201 363.607 398.998 363.607C374.416 363.607 362.038 346.538 362.038 312.225V227.549C362.038 214.748 368.941 203.373 380.314 198.305V197.897H306.002V198.305C316.967 203.373 324.059 214.544 324.059 227.549V315.881C324.059 333.338 329.952 346.941 341.738 356.689C353.519 366.447 369.145 371.326 388.236 371.326ZM98.6901 562.407C117.155 562.407 137.062 555.096 153.911 541.493C170.76 527.89 182.541 504.122 182.541 476.1C182.541 447.875 170.964 424.107 154.319 410.708C137.863 397.105 118.379 389.794 100.103 389.794C96.0397 389.794 87.3167 389.997 73.3076 390.609C59.6917 391.017 50.7649 391.425 46.4981 391.425H18.2759V391.832C29.6347 396.901 36.5519 408.071 36.5519 421.077V531.954C36.5519 544.741 29.6493 556.13 18.2759 561.198V561.592H49.1484C54.4201 561.592 63.1576 561.796 75.1279 562C87.0983 562.203 95.0349 562.407 98.6901 562.407ZM95.2242 558.548C86.5013 558.548 79.5986 558.155 74.5163 556.931V394.687C78.1715 394.469 81.0112 394.25 83.8654 394.25C114.723 393.245 141.533 439.952 140.717 490.126C140.717 513.263 136.252 530.522 127.32 541.901C118.582 552.868 108.025 558.548 95.2242 558.548ZM268.634 561.388V560.995C257.669 555.897 250.562 544.741 250.562 531.75V420.873C250.562 408.072 257.669 396.697 268.634 391.629V391.221H194.322V391.629C205.681 396.711 212.598 407.882 212.598 420.873V531.75C212.598 544.537 205.695 555.912 194.322 560.995V561.388H268.634ZM364.266 564.65C383.969 564.65 404.066 556.931 420.521 542.513C436.773 528.094 447.928 504.122 447.928 475.896C447.928 415.383 398.386 387.973 363.669 387.973C344.17 387.973 324.482 395.692 308.041 410.11C291.789 424.529 280.619 448.487 280.619 476.712C280.212 537.022 330.161 564.65 364.266 564.65ZM373.004 560.98C357.772 560.98 341.112 542.717 330.365 511.447C325.175 495.027 322.571 477.898 322.647 460.677C322.647 438.54 326.098 421.47 332.593 409.703C339.102 397.906 346.602 391.629 354.932 391.629C370.572 391.629 387.217 409.688 397.775 441.38C402.967 457.73 405.571 474.791 405.493 491.946C405.493 514.084 402.042 531.138 395.343 542.921C388.848 554.892 381.13 560.98 373.004 560.98Z" fill="currentColor"/>
</svg>
