<svg width="2090" height="2090" viewBox="0 0 2090 2090" fill="none" xmlns="http://www.w3.org/2000/svg">
<path d="M1402.6 391.967C1420.55 392.461 1438.65 398.855 1451.17 412.077C1470.77 432.8 1469.64 461.69 1469.41 488.292C1469.35 501.636 1469.11 514.977 1468.69 528.314L1457.7 520.178C1433.68 504.707 1408.34 488.165 1382.46 476.106C1393.5 449.36 1398.22 420.389 1402.6 391.967Z" fill="currentColor"/>
<path d="M744.077 392.066C746.078 391.905 747.812 392.08 749.796 392.357C751.488 393.823 751.909 395.02 752.474 397.116C754.4 404.257 755.033 411.878 756.474 419.151C759.022 431.991 762.588 444.92 766.353 457.463C771.051 473.123 776.929 487.447 784.958 501.691C761.126 517.166 736.21 530.954 711.522 544.999C702.867 549.741 694.503 555.086 686.07 560.212C685.43 541.777 685.996 523.165 685.828 504.706C685.658 486.177 684.025 466.332 686.943 448.005C688.433 438.648 691.362 429.765 696.278 421.64C707.315 403.396 724.465 396.852 744.077 392.066Z" fill="currentColor"/>
<path d="M577.107 699.786L578.06 699.695L578.054 700.228L579.387 699.827C594.79 715.469 610.152 740.425 623.166 758.678C650.609 796.646 677.621 834.918 704.2 873.494C691.042 881.86 677.934 890.302 664.877 898.824C663.636 899.218 662.622 899.12 661.333 899.101C650.444 892.272 552.39 749.184 537.548 728.148C550.376 718.248 564.277 709.76 577.107 699.786Z" fill="currentColor"/>
<path d="M1196.04 1632.93L1391.38 1632.78C1384.59 1649.53 1378.98 1666.14 1374.28 1683.61L1370.62 1697.62C1314.38 1698.6 1257.98 1697.93 1201.73 1697.64C1198.53 1680.36 1196.23 1650.78 1196.04 1632.93Z" fill="currentColor"/>
<path d="M1599.77 728.491C1600.34 728.569 1600.95 728.568 1601.51 728.725C1608.12 730.578 1642.33 774.641 1647.43 781.964C1623.83 803.989 1598.07 823.341 1573.38 844.097C1553.3 860.981 1533.3 880.662 1511.69 895.46L1508.69 894.758C1490.83 879.66 1472.56 864.868 1455.35 849.029C1472.31 832.744 1491.65 818.308 1509.72 803.242C1539.56 778.109 1569.58 753.193 1599.77 728.491Z" fill="currentColor"/>
<path d="M789.115 1632.93C864.285 1632.07 939.533 1632.98 1014.71 1632.85C1014.33 1654.56 1015.62 1676.03 1016.96 1697.7C945.641 1698.55 874.168 1697.83 802.837 1697.4C797.926 1676.25 791.724 1654.47 789.115 1632.93Z" fill="currentColor"/>
<path d="M522.907 65.3311C537.707 63.9667 553.552 65.1331 568.45 65.177C596.636 65.178 624.823 65.3239 653.008 65.6168C646.014 92.3348 639.676 119.248 633.034 146.055C628.946 162.547 625.189 179.347 619.581 195.398C608.716 196.435 597.17 195.713 586.239 195.696L522.22 195.457C512.141 173.377 499.818 152.236 490.242 129.99C499.786 108.243 510.717 85.6882 522.907 65.3311Z" fill="currentColor"/>
<path d="M1298.69 497.268C1288.37 511.239 1277.76 524.882 1266.11 537.768C1249.01 556.501 1228.18 572.693 1206.34 585.502C1204.54 586.548 1202.71 587.573 1200.89 588.574C1199.05 589.576 1197.2 590.556 1195.34 591.512C1193.49 592.468 1191.62 593.402 1189.74 594.312C1187.85 595.224 1185.97 596.112 1184.07 596.976C1182.16 597.84 1180.25 598.682 1178.32 599.5C1176.4 600.317 1174.47 601.111 1172.53 601.882C1170.59 602.652 1168.64 603.398 1166.68 604.122C1164.72 604.844 1162.75 605.542 1160.77 606.217C1158.79 606.891 1156.8 607.541 1154.81 608.167C1152.82 608.792 1150.82 609.395 1148.81 609.971C1146.8 610.548 1144.79 611.101 1142.77 611.628C1140.75 612.156 1138.72 612.658 1136.68 613.137C1134.65 613.614 1132.61 614.067 1130.56 614.496C1128.51 614.924 1126.46 615.327 1124.41 615.704C1122.36 616.083 1120.3 616.435 1118.23 616.763C1116.17 617.09 1114.1 617.392 1112.03 617.669C1109.96 617.945 1107.89 618.197 1105.81 618.424C1103.73 618.65 1101.65 618.851 1099.57 619.026C1097.49 619.201 1095.41 619.351 1093.32 619.475C1091.23 619.6 1089.15 619.699 1087.06 619.771C1084.97 619.845 1082.88 619.893 1080.79 619.914C1078.7 619.936 1076.62 619.933 1074.53 619.904C1072.43 619.874 1070.35 619.82 1068.26 619.739C1066.17 619.659 1064.09 619.554 1062 619.422C1059.91 619.29 1057.83 619.134 1055.75 618.953C1053.67 618.77 1051.58 618.563 1049.51 618.329C1047.44 618.095 1045.37 617.837 1043.3 617.554C1041.23 617.27 1039.15 616.961 1037.09 616.626C1035.03 616.292 1032.97 615.932 1030.92 615.547C1028.87 615.163 1026.82 614.752 1024.78 614.318C1022.73 613.883 1020.69 613.423 1018.66 612.938C1016.63 612.453 1014.6 611.943 1012.58 611.409C951.63 595.494 891.148 554.699 859.016 499.655C868.045 500.782 889.192 513.279 899.431 517.661C915.643 524.598 932.334 531.179 949.258 536.155C952.87 537.194 956.492 538.187 960.127 539.138C963.764 540.088 967.41 540.994 971.067 541.855C974.725 542.715 978.393 543.532 982.07 544.303C985.747 545.075 989.433 545.801 993.129 546.483C996.824 547.164 1000.53 547.801 1004.24 548.392C1007.95 548.982 1011.67 549.527 1015.39 550.028C1019.12 550.528 1022.85 550.983 1026.58 551.392C1030.32 551.801 1034.05 552.164 1037.8 552.482C1041.54 552.799 1045.29 553.071 1049.04 553.297C1052.79 553.523 1056.54 553.703 1060.3 553.837C1064.06 553.972 1067.81 554.06 1071.57 554.102C1075.32 554.145 1079.08 554.142 1082.84 554.093C1086.6 554.043 1090.35 553.948 1094.11 553.807C1097.86 553.667 1101.62 553.48 1105.37 553.247C1109.11 553.014 1112.87 552.736 1116.61 552.411C1120.36 552.088 1124.09 551.717 1127.83 551.302C1131.56 550.887 1135.29 550.425 1139.01 549.918C1142.74 549.411 1146.45 548.859 1150.16 548.262C1153.87 547.665 1157.57 547.022 1161.27 546.334C1164.96 545.646 1168.65 544.914 1172.32 544.135C1175.99 543.357 1179.66 542.535 1183.32 541.666C1186.98 540.799 1190.62 539.887 1194.25 538.93C1197.88 537.974 1201.51 536.973 1205.12 535.928C1208.72 534.883 1212.33 533.794 1215.91 532.66C1219.49 531.528 1223.05 530.351 1226.61 529.131C1230.16 527.911 1233.7 526.648 1237.23 525.341C1240.75 524.034 1244.26 522.685 1247.75 521.293C1251.24 519.9 1254.71 518.465 1258.17 516.988C1261.63 515.512 1265.05 513.992 1268.47 512.432C1271.89 510.87 1275.29 509.267 1278.67 507.623C1282.05 505.979 1285.4 504.294 1288.74 502.568C1292.08 500.842 1295.39 499.075 1298.69 497.268Z" fill="currentColor"/>
<path d="M1061.07 98.4823C1066.84 98.1497 1072.63 98.0037 1078.41 98.0445C1084.2 98.0854 1089.99 98.3119 1095.76 98.7252C1101.53 99.1396 1107.28 99.7386 1113.02 100.523C1118.75 101.308 1124.46 102.278 1130.13 103.431C1199.69 118.202 1257.76 158.965 1296.54 218.346C1280.66 212.249 1265.5 204.05 1249.62 197.777C1197.62 177.241 1145.86 167.258 1090.19 164.052C1086.04 163.96 1081.88 163.924 1077.73 163.943C1073.58 163.962 1069.42 164.037 1065.27 164.166C1061.12 164.296 1056.96 164.482 1052.82 164.723C1048.67 164.963 1044.52 165.259 1040.38 165.61C1036.25 165.963 1032.11 166.369 1027.98 166.83C1023.85 167.292 1019.73 167.809 1015.61 168.38C1011.5 168.953 1007.39 169.579 1003.29 170.26C999.193 170.941 995.104 171.676 991.025 172.467C986.946 173.258 982.879 174.103 978.822 175.002C974.766 175.901 970.722 176.853 966.691 177.861C962.66 178.868 958.644 179.929 954.64 181.043C950.638 182.157 946.651 183.324 942.679 184.545C938.708 185.766 934.754 187.039 930.815 188.366C926.878 189.691 922.959 191.07 919.058 192.501C915.158 193.932 911.277 195.414 907.415 196.949C903.554 198.483 899.714 200.069 895.896 201.706C882.418 207.409 869.461 214.206 856.276 220.538C861.883 211.632 868.487 203.086 875.198 194.979C924.325 135.626 984.954 105.752 1061.07 98.4823Z" fill="currentColor"/>
<path d="M1696.81 1405.78C1711.16 1409.45 1810.24 1488.16 1828.54 1502.11C1817.97 1518.49 1810.05 1537.01 1801.56 1554.52L1764.05 1631.58C1749.34 1631.56 1721.68 1621.69 1706.07 1617.73C1681.75 1611.59 1657.04 1606.35 1632.9 1599.66C1632.06 1566.96 1632.74 1534.1 1632.65 1501.38C1654.52 1469.85 1675.37 1437.61 1696.81 1405.78Z" fill="currentColor"/>
<path d="M1794.23 262.898C1796.8 263.713 1798.08 264.883 1799.78 266.874C1812.28 281.499 1823.38 297.951 1834.83 313.427C1854 339.754 1873.67 365.714 1893.81 391.305C1855.94 427.855 1819.34 465.865 1782.08 503.04C1776.15 509.091 1770.07 514.999 1763.86 520.766C1740.83 501.232 1717.72 478.964 1697.89 456.17L1698.46 358.166C1713.95 343.982 1728.6 328.891 1743.51 314.102C1760.56 297.191 1777.85 280.46 1794.23 262.898Z" fill="currentColor"/>
<path d="M522.193 1730.62C538.527 1732.56 555.333 1737.33 571.497 1740.63C609.481 1748.59 647.535 1756.21 685.658 1763.47C685.201 1806.81 685.064 1850.14 685.248 1893.48C667.7 1896.12 650.229 1900.13 632.897 1903.9L522.855 1926.02C517.627 1913.84 491.321 1837.92 491.746 1828.16C492.379 1813.68 516.321 1749.33 522.193 1730.62Z" fill="currentColor"/>
<path d="M324.903 327.359C332.658 327.302 444.651 384.271 456.559 392.75C447.622 411.774 440.38 431.794 432.727 451.37C419.296 485.727 406.013 520.369 391.243 554.176C382.975 552.759 374.738 550.197 366.615 548.084C356.634 544.066 344.067 542.314 333.553 539.806C309.6 534.089 285.492 528.54 261.742 522.04C254.722 500.741 250.536 477.572 245.182 455.735C239.98 434.52 233.291 413.123 229.545 391.621C260.746 369.376 293.889 349.874 324.903 327.359Z" fill="currentColor"/>
<path d="M1205.77 1763.66C1258.93 1762.4 1312.22 1763.15 1365.4 1763.43C1365.48 1767.42 1365.65 1771.4 1365.9 1775.38C1366.16 1779.36 1366.5 1783.33 1366.94 1787.3C1367.37 1791.27 1367.89 1795.22 1368.49 1799.17C1369.1 1803.11 1369.79 1807.04 1370.58 1810.95C1371.36 1814.85 1372.23 1818.75 1373.18 1822.63C1374.13 1826.5 1375.17 1830.36 1376.29 1834.18C1377.41 1838.01 1378.62 1841.81 1379.9 1845.58C1381.2 1849.36 1382.57 1853.1 1384.03 1856.82C1391.3 1875.56 1402.33 1894.96 1403.74 1915.28C1405.23 1936.69 1396.19 1954.42 1382.5 1970.17C1367.99 1982.96 1351.55 1990.58 1332 1991.18C1300.98 1992.14 1267.58 1978.21 1245.35 1956.79C1209.81 1922.53 1208.74 1878.99 1207.53 1832.9L1205.77 1763.66Z" fill="currentColor"/>
<path d="M827.411 1763.77C852.745 1763.04 878.303 1763.76 903.661 1763.72C944.086 1763.48 984.513 1763.45 1024.94 1763.64C1036.55 1822.51 1044.18 1855.62 1021.36 1914C1015.78 1928.26 1009.77 1942.59 1001.52 1955.53C999.229 1958.85 996.708 1962.21 994.033 1965.23C980.304 1980.72 957.425 1990.26 936.948 1991.25C936.253 1991.28 935.557 1991.31 934.861 1991.32C934.165 1991.33 933.469 1991.34 932.772 1991.33C932.076 1991.33 931.38 1991.32 930.684 1991.3C929.989 1991.28 929.293 1991.25 928.598 1991.22C927.903 1991.18 927.208 1991.13 926.514 1991.08C925.82 1991.03 925.127 1990.96 924.434 1990.89C923.741 1990.82 923.05 1990.74 922.359 1990.66C921.669 1990.57 920.98 1990.47 920.291 1990.36C919.602 1990.26 918.915 1990.15 918.23 1990.03C917.546 1989.9 916.862 1989.77 916.179 1989.64C915.496 1989.49 914.817 1989.34 914.138 1989.19C913.46 1989.04 912.782 1988.87 912.107 1988.7C911.433 1988.53 910.761 1988.35 910.091 1988.16C909.42 1987.97 908.753 1987.78 908.088 1987.57C907.422 1987.36 906.76 1987.15 906.1 1986.93C905.439 1986.71 904.781 1986.47 904.127 1986.24C903.473 1986 902.821 1985.76 902.173 1985.5C901.525 1985.25 900.879 1984.99 900.237 1984.73C899.595 1984.45 898.957 1984.18 898.321 1983.89C897.686 1983.61 897.054 1983.31 896.426 1983.01C895.799 1982.72 895.174 1982.41 894.554 1982.1C893.933 1981.78 893.317 1981.45 892.703 1981.13C892.091 1980.79 891.483 1980.45 890.879 1980.11C890.275 1979.76 889.675 1979.4 889.079 1979.04C888.484 1978.69 887.893 1978.32 887.306 1977.94C886.719 1977.56 886.137 1977.19 885.56 1976.8C884.983 1976.41 884.411 1976.01 883.843 1975.61C883.276 1975.21 882.714 1974.8 882.155 1974.38C881.598 1973.96 881.046 1973.54 880.499 1973.11C879.952 1972.68 879.41 1972.24 878.874 1971.8C878.339 1971.35 877.808 1970.9 877.282 1970.44C876.757 1969.98 876.237 1969.52 875.724 1969.05C864.708 1958.88 857.766 1946.05 853.648 1931.72C845 1901.63 848.561 1868.01 843.698 1837.05C841.289 1821.7 837.515 1806.56 833.711 1791.51C831.501 1782.78 827.716 1772.75 827.411 1763.77Z" fill="currentColor"/>
<path d="M1687.81 834.475C1689.75 834.726 1690.18 834.984 1691.65 836.347C1699.84 843.968 1706.82 854.597 1713.69 863.483C1729.5 883.922 1745.59 905.302 1764.78 922.733C1776.53 933.41 1790.57 941.944 1804.89 948.693C1819.21 955.439 1836.48 960.389 1848.09 971.457C1855.59 978.611 1860.63 989.775 1860.75 1000.18C1860.84 1007.73 1858.28 1016.79 1854.85 1023.42C1839.35 1053.37 1806.09 1036.65 1781.78 1048.87C1761.37 1059.13 1741.58 1084.03 1725.39 1100.38C1720.67 1104.59 1715.75 1108.11 1709.37 1109.18C1700.87 1110.62 1693.69 1106.92 1688.4 1100.4C1677.4 1086.81 1672.55 1065.99 1664.45 1050.36C1643.74 1010.38 1597.17 966.766 1560.63 940.582C1570.79 930.036 1583.93 920.826 1595.29 911.431C1626.1 885.948 1658.26 861.389 1687.81 834.475Z" fill="currentColor"/>
<path d="M487.398 774.072C495.433 778.861 588.977 914.972 605.954 937.564C584.947 955.049 550.871 970.221 532.505 988.546C507.607 1013.39 541.174 1053.96 540.285 1082.82C539.969 1093.06 535.39 1102.04 527.998 1109C519.606 1116.9 509.922 1121.13 498.23 1120.63C478.738 1119.79 467.226 1106.88 454.934 1093.7C449.115 1087.41 443.639 1082.6 435.416 1079.57C403.678 1067.89 333.535 1089.61 307.054 1067.95C298.794 1061.2 294.937 1051.79 294.356 1041.32C293.126 1019.14 325.402 993.878 340.026 979.463C354.829 964.872 372.305 950.357 384.412 933.494C396.304 916.931 402.925 895.439 412.819 877.396C433.818 839.098 459.123 807.14 487.398 774.072Z" fill="currentColor"/>
<path d="M1074.41 229.051C1175.35 228.061 1247.27 268.204 1334.62 311.911C1338.56 343.842 1337.67 373.423 1334.12 405.336C1320.08 413.683 1305.24 421.004 1290.74 428.555C1222.33 464.203 1158.11 486.339 1080.53 488.085C999.869 487.368 944.437 468.118 872.827 432.345C855.447 423.663 836.831 415.553 820.354 405.293C817.051 373.224 817.071 343.471 820.233 311.388C882.115 282.844 940.645 247.152 1008.75 235.248C1030.51 231.445 1052.39 230.219 1074.41 229.051Z" fill="currentColor"/>
<path d="M811.807 1175.39C870.834 1174.02 930.214 1175.4 989.278 1175.43L1387.41 1175.3C1396.1 1217.66 1409.96 1258.19 1420.41 1300.03C1421.11 1302.75 1421.81 1305.49 1422.47 1308.23C1423.13 1310.98 1423.76 1313.72 1424.39 1316.48C1425.01 1319.22 1425.6 1321.98 1426.17 1324.74C1426.73 1327.51 1427.29 1330.28 1427.81 1333.05C1428.33 1335.82 1428.83 1338.59 1429.31 1341.38C1429.79 1344.15 1430.23 1346.94 1430.66 1349.73C1431.08 1352.51 1431.49 1355.31 1431.87 1358.1C1432.24 1360.9 1432.6 1363.7 1432.94 1366.49C1433.28 1369.3 1433.58 1372.1 1433.87 1374.9C1434.15 1377.71 1434.42 1380.53 1434.65 1383.33C1434.89 1386.14 1435.09 1388.95 1435.29 1391.77C1435.48 1394.58 1435.64 1397.39 1435.79 1400.22C1435.92 1403.04 1436.04 1405.85 1436.13 1408.67C1436.23 1411.49 1436.3 1414.3 1436.34 1417.13C1436.39 1419.95 1436.41 1422.76 1436.41 1425.59C1436.4 1428.42 1436.38 1431.23 1436.33 1434.05C1436.28 1436.88 1436.19 1439.69 1436.1 1442.51C1436 1445.33 1435.88 1448.14 1435.72 1450.96C1435.58 1453.78 1435.41 1456.59 1435.21 1459.41C1435.02 1462.22 1434.8 1465.03 1434.56 1467.85C1434.32 1470.66 1434.05 1473.46 1433.76 1476.27C1433.46 1479.08 1433.15 1481.87 1432.82 1484.68C1432.48 1487.47 1432.11 1490.27 1431.72 1493.07C1431.34 1495.86 1430.93 1498.65 1430.49 1501.44C1430.06 1504.22 1429.6 1507.01 1429.12 1509.79C1428.64 1512.57 1428.13 1515.35 1427.6 1518.11C1427.08 1520.89 1426.53 1523.65 1425.95 1526.41C1425.37 1529.17 1424.77 1531.93 1424.15 1534.68C1423.53 1537.43 1422.88 1540.17 1422.21 1542.92C1421.55 1545.66 1420.86 1548.4 1420.13 1551.12C1419.42 1553.85 1418.68 1556.57 1417.92 1559.29C1417.15 1562 1416.37 1564.71 1415.56 1567.41C1339.41 1568.22 1262.98 1567.73 1186.81 1567.04C1184.7 1552.87 1182.49 1538.7 1180.16 1524.57C1176.62 1491.59 1150.44 1338.03 1135.67 1318.28C1130.78 1311.74 1122.8 1307.54 1114.78 1306.42C1106.13 1305.19 1096.84 1307.01 1089.93 1312.53C1077.34 1322.56 1071.56 1344.52 1066.3 1359.18C1041.56 1428.2 1027.21 1494.23 1018.1 1566.79C937.924 1568.19 857.571 1566.96 777.372 1567.11C765.799 1471.32 778.79 1386.15 793.597 1292.16C799.347 1253.19 805.417 1214.26 811.807 1175.39Z" fill="currentColor"/>
<path d="M1352.22 535.119C1362.06 536.311 1375.59 547.245 1384.2 552.549C1417.78 573.241 1450.7 594.198 1481.87 618.484C1506.91 637.979 1530.13 659.341 1554.36 679.76C1517.63 711.562 1480.44 742.825 1442.81 773.55C1423.52 789.311 1394.09 809.973 1378.37 828.665C1373.8 834.106 1372.61 840.964 1371.81 847.849C1369.07 871.609 1371.49 897.049 1371.56 921.013C1371.64 953.355 1371.13 985.779 1371.9 1018.11C1372.84 1048.72 1374.39 1079.3 1376.55 1109.85C1354.19 1110.64 1331.6 1110.1 1309.21 1110.1L1185.58 1110L812.871 1110.27C808.786 1084.18 806.027 1057.77 802.532 1031.58C799.327 1002.55 794.878 973.633 791.579 944.604C789.174 923.433 788.745 895.019 782.53 875.257C775.489 852.871 751.572 824.748 737.514 805.296L675.288 719.118C662.547 701.361 648.989 683.664 637.786 664.897C650.652 655.227 666.409 647.464 680.299 639.244C705.38 624.292 730.614 609.602 755.999 595.173C777.112 583.142 798.629 571.626 818.647 557.81C826.995 566.323 834.486 575.746 842.744 584.383C849.887 591.731 857.311 598.782 865.015 605.539C872.72 612.296 880.681 618.736 888.898 624.858C955.677 674.411 1045.34 693.697 1127.1 681.578C1226.09 666.906 1294.23 613.295 1352.22 535.119ZM1123.97 749.595C1091.38 750.707 1058.67 750.139 1026.06 750.217C1004.92 750.267 981.233 748.325 960.699 753.744C959.32 754.1 957.956 754.505 956.606 754.958C955.256 755.41 953.923 755.91 952.608 756.458C951.294 757.005 950 757.598 948.727 758.237C947.455 758.876 946.206 759.559 944.981 760.286C943.757 761.014 942.56 761.783 941.39 762.595C940.219 763.406 939.079 764.258 937.97 765.151C936.861 766.044 935.784 766.975 934.74 767.943C933.696 768.911 932.688 769.917 931.715 770.957C925.358 777.713 919.86 786.62 917.393 795.6C909.923 822.782 913.709 851.969 913.867 879.774C913.986 900.8 913.236 921.916 914.084 942.926C914.927 963.81 920.288 981.034 936.181 995.34C961.376 1018.02 999.181 1012.93 1030.39 1012.26H1121.75C1144.67 1012.3 1170.5 1014.9 1192.85 1009.45C1194.22 1009.11 1195.58 1008.73 1196.92 1008.29C1198.25 1007.86 1199.58 1007.39 1200.9 1006.86C1202.2 1006.34 1203.49 1005.78 1204.76 1005.17C1206.03 1004.56 1207.27 1003.9 1208.5 1003.21C1209.72 1002.51 1210.93 1001.78 1212.1 1001C1213.27 1000.22 1214.43 999.404 1215.54 998.548C1216.65 997.691 1217.74 996.797 1218.81 995.867C1219.86 994.936 1220.89 993.971 1221.88 992.97C1242.54 972.404 1242.04 942.64 1241.88 915.438C1241.79 900.231 1241.31 885.028 1241.35 869.82C1241.42 846.11 1244.35 818.938 1237.71 795.991C1234.87 786.192 1229.04 777.014 1221.86 769.828C1200.52 748.501 1171.35 748.97 1143.12 749.228C1136.74 749.302 1130.35 749.425 1123.97 749.595Z" fill="currentColor"/>
<path d="M980.901 816.785C1012.39 816.187 1043.98 816.579 1075.48 816.545C1108.66 816.509 1141.96 816.075 1175.14 816.931C1174.84 836.341 1177.22 937.861 1174.18 946.122C1149.23 947.617 1124.12 946.884 1099.14 946.821L979.898 946.541C979.46 922.714 976.022 832.823 980.901 816.785Z" fill="currentColor"/>
</svg>
